<mxfile host="app.diagrams.net" modified="2024-04-12T12:46:44.705Z" agent="Mozilla/5.0 (Windows NT 10.0; Win64; x64) AppleWebKit/537.36 (KHTML, like Gecko) Chrome/123.0.0.0 Safari/537.36" version="24.2.3" etag="g1VblsbDYh35OyC2DG_Q" type="github">
  <diagram name="Sayfa -1" id="F9p8h_KPN2AIbbvUdC_e">
    <mxGraphModel>
      <root>
        <mxCell id="0" />
        <mxCell id="1" parent="0" />
      </root>
    </mxGraphModel>
  </diagram>
</mxfile>
